<svg width="16" height="16" viewBox="0 0 16 16" fill="none" xmlns="http://www.w3.org/2000/svg">
<path d="M8 16C6.41775 16 4.87103 15.5308 3.55544 14.6518C2.23985 13.7727 1.21447 12.5233 0.608967 11.0615C0.0034663 9.59966 -0.15496 7.99113 0.153721 6.43928C0.462403 4.88743 1.22433 3.46197 2.34315 2.34315C3.46197 1.22433 4.88743 0.462403 6.43928 0.153721C7.99113 -0.15496 9.59966 0.0034663 11.0615 0.608967C12.5233 1.21447 13.7727 2.23985 14.6518 3.55544C15.5308 4.87103 16 6.41775 16 8C15.9977 10.121 15.1541 12.1545 13.6543 13.6543C12.1545 15.1541 10.121 15.9977 8 16ZM8 1.45455C6.70543 1.45455 5.43994 1.83843 4.36354 2.55766C3.28715 3.27688 2.4482 4.29914 1.95279 5.49516C1.45738 6.69119 1.32776 8.00726 1.58032 9.27696C1.83288 10.5466 2.45627 11.7129 3.37167 12.6283C4.28707 13.5437 5.45335 14.1671 6.72305 14.4197C7.99274 14.6722 9.30881 14.5426 10.5048 14.0472C11.7009 13.5518 12.7231 12.7129 13.4423 11.6365C14.1616 10.5601 14.5455 9.29457 14.5455 8C14.5435 6.26463 13.8533 4.60089 12.6262 3.37379C11.3991 2.1467 9.73537 1.45647 8 1.45455Z" fill="#4B5563"/>
<path d="M7.14056 10.9086C7.04505 10.9086 6.95047 10.8898 6.86223 10.8533C6.774 10.8167 6.69385 10.7631 6.62638 10.6955L4.0482 8.1173C3.97874 8.05021 3.92333 7.96996 3.88522 7.88123C3.8471 7.7925 3.82704 7.69707 3.8262 7.6005C3.82536 7.50393 3.84376 7.40817 3.88033 7.31879C3.9169 7.22941 3.9709 7.14821 4.03919 7.07992C4.10747 7.01164 4.18867 6.95763 4.27805 6.92107C4.36743 6.8845 4.4632 6.8661 4.55976 6.86694C4.65633 6.86778 4.75176 6.88784 4.84049 6.92595C4.92922 6.96407 5.00947 7.01947 5.07656 7.08894L7.11584 9.12748L10.8998 4.96457C11.0296 4.82184 11.2108 4.73652 11.4036 4.72738C11.5963 4.71824 11.7847 4.78604 11.9275 4.91585C12.0702 5.04566 12.1555 5.22685 12.1647 5.41957C12.1738 5.61229 12.106 5.80075 11.9762 5.94348L7.67874 10.6708C7.6126 10.7436 7.53234 10.8023 7.44282 10.8432C7.3533 10.8841 7.2564 10.9063 7.15802 10.9086H7.14056Z" fill="#4B5563"/>
</svg>
