<svg width="16" height="16" viewBox="0 0 16 16" fill="none" xmlns="http://www.w3.org/2000/svg">
<path d="M8.17654 9.1328L11.8335 5.4758C11.9001 5.40272 11.9806 5.34372 12.0704 5.30232C12.1602 5.26092 12.2573 5.23794 12.3561 5.23476C12.4549 5.23157 12.5534 5.24824 12.6456 5.28378C12.7378 5.31932 12.822 5.373 12.8931 5.44165C12.9643 5.5103 13.0209 5.59252 13.0597 5.68345C13.0985 5.77438 13.1186 5.87216 13.1189 5.97101C13.1192 6.06986 13.0997 6.16777 13.0615 6.25894C13.0233 6.35012 12.9672 6.4327 12.8965 6.5018L12.8785 6.5198L8.69954 10.6998C8.56095 10.8384 8.37301 10.9162 8.17704 10.9162C7.98107 10.9162 7.79312 10.8384 7.65454 10.6998L3.47554 6.5208C3.40574 6.45337 3.34991 6.37285 3.31123 6.28384C3.27255 6.19483 3.25178 6.09907 3.25011 6.00203C3.24844 5.90499 3.2659 5.80858 3.30149 5.71829C3.33708 5.628 3.3901 5.5456 3.45754 5.4758C3.52497 5.40601 3.60549 5.35017 3.6945 5.31149C3.78351 5.27282 3.87927 5.25205 3.97631 5.25038C4.07335 5.2487 4.16976 5.26616 4.26005 5.30175C4.35034 5.33734 4.43274 5.39037 4.50254 5.4578L4.52054 5.4758L8.17654 9.1328Z" fill="#132476" stroke="#132476" stroke-width="0.5"/>
</svg>
