<svg width="60" height="60" viewBox="0 0 60 60" fill="none" xmlns="http://www.w3.org/2000/svg">
<rect width="60" height="60" rx="30" fill="#D7B875"/>
<path d="M31.9994 20C30.8729 19.9989 29.7519 20.1568 28.6694 20.469C28.3237 19.4132 27.7132 18.4637 26.8962 17.711C26.0792 16.9584 25.0828 16.4277 24.0024 16.1696C22.9219 15.9115 21.7933 15.9346 20.7242 16.2367C19.6552 16.5389 18.6815 17.11 17.896 17.8955C17.1105 18.681 16.5394 19.6548 16.2372 20.7238C15.9351 21.7928 15.912 22.9214 16.1701 24.0019C16.4281 25.0824 16.9589 26.0787 17.7115 26.8957C18.4642 27.7128 19.4137 28.3233 20.4694 28.669C19.7707 31.0873 19.8501 33.6641 20.6965 36.0348C21.5429 38.4054 23.1133 40.4499 25.1857 41.8789C27.258 43.3079 29.7272 44.049 32.2439 43.9974C34.7606 43.9458 37.1973 43.1041 39.2093 41.5914C41.2213 40.0786 42.7066 37.9715 43.4551 35.5681C44.2036 33.1647 44.1773 30.5868 43.38 28.1992C42.5828 25.8116 41.0548 23.7351 39.0124 22.2637C36.9701 20.7922 34.5167 20.0003 31.9994 20ZM17.9994 22.5C17.9994 21.6099 18.2634 20.7399 18.7578 19.9999C19.2523 19.2599 19.9551 18.6831 20.7774 18.3425C21.5996 18.0019 22.5044 17.9128 23.3774 18.0864C24.2503 18.2601 25.0521 18.6886 25.6814 19.318C26.3108 19.9473 26.7393 20.7491 26.913 21.6221C27.0866 22.495 26.9975 23.3998 26.6569 24.222C26.3163 25.0443 25.7395 25.7471 24.9995 26.2416C24.2595 26.736 23.3895 27 22.4994 27C21.3064 26.9986 20.1626 26.5241 19.3189 25.6805C18.4753 24.8368 18.0008 23.693 17.9994 22.5ZM31.9994 42C30.4287 42.0024 28.8796 41.6342 27.4779 40.9252C26.0762 40.2163 24.8616 39.1867 23.9328 37.92C23.0039 36.6533 22.387 35.1854 22.1322 33.6354C21.8774 32.0855 21.9919 30.4973 22.4664 29H22.4994C24.2227 28.9978 25.8748 28.3123 27.0933 27.0938C28.3118 25.8753 28.9973 24.2232 28.9994 22.5V22.467C30.3753 22.0311 31.8292 21.8982 33.2613 22.0774C34.6935 22.2566 36.0698 22.7437 37.2958 23.5052C38.5219 24.2667 39.5685 25.2845 40.3639 26.4888C41.1593 27.6932 41.6846 29.0554 41.9037 30.4819C42.1228 31.9085 42.0305 33.3655 41.6332 34.753C41.2359 36.1405 40.5429 37.4256 39.6019 38.5199C38.6609 39.6142 37.4941 40.4919 36.1818 41.0926C34.8695 41.6933 33.4427 42.0029 31.9994 42Z" fill="#F9FAFB"/>
<path d="M38 31H33V26C33 25.7348 32.8946 25.4804 32.7071 25.2929C32.5196 25.1054 32.2652 25 32 25C31.7348 25 31.4804 25.1054 31.2929 25.2929C31.1054 25.4804 31 25.7348 31 26V32C31 32.2652 31.1054 32.5196 31.2929 32.7071C31.4804 32.8946 31.7348 33 32 33H38C38.2652 33 38.5196 32.8946 38.7071 32.7071C38.8946 32.5196 39 32.2652 39 32C39 31.7348 38.8946 31.4804 38.7071 31.2929C38.5196 31.1054 38.2652 31 38 31ZM22.5 23C22.7652 23 23.0196 22.8946 23.2071 22.7071C23.3946 22.5196 23.5 22.2652 23.5 22V20C23.5 19.7348 23.3946 19.4804 23.2071 19.2929C23.0196 19.1054 22.7652 19 22.5 19C22.2348 19 21.9804 19.1054 21.7929 19.2929C21.6054 19.4804 21.5 19.7348 21.5 20V22C21.5 22.2652 21.6054 22.5196 21.7929 22.7071C21.9804 22.8946 22.2348 23 22.5 23Z" fill="#F9FAFB"/>
<path d="M22.5 26C23.0523 26 23.5 25.5523 23.5 25C23.5 24.4477 23.0523 24 22.5 24C21.9477 24 21.5 24.4477 21.5 25C21.5 25.5523 21.9477 26 22.5 26Z" fill="#F9FAFB"/>
</svg>
