<svg width="14" height="16" viewBox="0 0 14 16" fill="none" xmlns="http://www.w3.org/2000/svg">
<path d="M13.2527 11.2753C12.7553 10.8558 12.3557 10.3326 12.0818 9.74242C11.8078 9.15225 11.6661 8.50933 11.6667 7.85867V6C11.6667 3.654 9.92399 1.712 7.66666 1.38667V0.666667C7.66666 0.489856 7.59642 0.320286 7.4714 0.195262C7.34637 0.0702379 7.1768 0 6.99999 0C6.82318 0 6.65361 0.0702379 6.52859 0.195262C6.40356 0.320286 6.33333 0.489856 6.33333 0.666667V1.38667C4.07533 1.712 2.33333 3.654 2.33333 6V7.85867C2.33358 8.51065 2.19121 9.15479 1.9162 9.74593C1.64119 10.3371 1.24019 10.8609 0.741326 11.2807C0.561032 11.4361 0.432528 11.6429 0.373023 11.8734C0.313517 12.1038 0.325851 12.347 0.408373 12.5703C0.490894 12.7935 0.639664 12.9863 0.834759 13.1226C1.02985 13.259 1.26196 13.3325 1.49999 13.3333H12.5C13.1433 13.3333 13.6667 12.81 13.6667 12.1667C13.6667 11.8253 13.518 11.5027 13.2527 11.2753ZM6.99999 16C7.57601 15.9992 8.13413 15.7999 8.5803 15.4355C9.02647 15.0712 9.33339 14.5642 9.44933 14H4.55066C4.6666 14.5642 4.97352 15.0712 5.41968 15.4355C5.86585 15.7999 6.42398 15.9992 6.99999 16Z" fill="#132476"/>
</svg>
