<svg width="18" height="18" viewBox="0 0 18 18" fill="none" xmlns="http://www.w3.org/2000/svg">
<path d="M9.00011 0.95C4.5611 0.95 0.95 4.56133 0.95 9.00033C0.950374 13.4389 4.56162 17.05 9.00011 17.05C13.439 17.05 17.0502 13.439 17.0502 9.00026C17.0501 4.56133 13.439 0.95 9.00011 0.95ZM9.00011 2.16393C10.6036 2.16393 12.0795 2.7192 13.2468 3.64724L3.64732 13.2466C2.71942 12.0795 2.16408 10.6036 2.16393 9.00026C2.16393 5.23078 5.2307 2.16393 9.00011 2.16393ZM9.00011 15.8361C7.27055 15.8361 5.68925 15.1901 4.48379 14.127L14.1271 4.48371C15.1903 5.68917 15.8362 7.27062 15.8362 9.00033C15.8362 12.7695 12.7694 15.8361 9.00011 15.8361Z" fill="#4B5563" stroke="#4B5563" stroke-width="0.1"/>
</svg>
