<svg width="16" height="17" viewBox="0 0 16 17" fill="none" xmlns="http://www.w3.org/2000/svg">
<path d="M15.5309 15.6328H15.0309V7.66426C15.0309 7.56588 15 7.46999 14.9425 7.39018C14.8849 7.31037 14.8037 7.25068 14.7104 7.21958L9.40606 5.45145V3.85186C9.40606 3.65645 9.28487 3.48154 9.10191 3.41295L1.60209 0.600513C1.29597 0.485732 0.96875 0.712388 0.96875 1.03942V15.6329H0.46875C0.209875 15.6329 0 15.8427 0 16.1016C0 16.3605 0.209875 16.5704 0.46875 16.5704H15.5309C15.7898 16.5704 15.9997 16.3605 15.9997 16.1016C15.9997 15.8427 15.7898 15.6328 15.5309 15.6328ZM4.71866 15.6328H3.78119V13.7579H4.71866V15.6328ZM6.59363 15.6328H5.65616V13.7579H6.59363V15.6328ZM8.46859 5.78929V15.6328H7.53113V13.2891C7.53113 13.0303 7.32125 12.8204 7.06238 12.8204H3.31244C3.05356 12.8204 2.84369 13.0303 2.84369 13.2891V15.6328H1.90622V1.71579L8.46859 4.17667V5.78929ZM12.2185 15.6328H11.281V13.7579H12.2185V15.6328ZM14.0935 15.6328H13.156V13.2891C13.156 13.0303 12.9461 12.8204 12.6873 12.8204H10.8123C10.5534 12.8204 10.3435 13.0303 10.3435 13.2891V15.6328H9.40606V6.43964L14.0935 8.00211V15.6328Z" fill="#4B5563"/>
<path d="M4.24997 10.9452H3.3125C3.05362 10.9452 2.84375 11.1551 2.84375 11.4139C2.84375 11.6728 3.05359 11.8827 3.3125 11.8827H4.24997C4.50884 11.8827 4.71872 11.6728 4.71872 11.4139C4.71872 11.1551 4.50884 10.9452 4.24997 10.9452ZM7.06241 10.9452H6.12494C5.86606 10.9452 5.65619 11.1551 5.65619 11.4139C5.65619 11.6728 5.86603 11.8827 6.12494 11.8827H7.06241C7.32128 11.8827 7.53116 11.6728 7.53116 11.4139C7.53116 11.1551 7.32128 10.9452 7.06241 10.9452ZM4.24997 9.07025H3.3125C3.05362 9.07025 2.84375 9.28013 2.84375 9.539C2.84375 9.79788 3.05359 10.0078 3.3125 10.0078H4.24997C4.50884 10.0078 4.71872 9.79788 4.71872 9.539C4.71872 9.28013 4.50884 9.07025 4.24997 9.07025ZM7.06241 9.07025H6.12494C5.86606 9.07025 5.65619 9.28013 5.65619 9.539C5.65619 9.79788 5.86603 10.0078 6.12494 10.0078H7.06241C7.32128 10.0078 7.53116 9.79788 7.53116 9.539C7.53116 9.28013 7.32128 9.07025 7.06241 9.07025ZM12.6873 10.9452H10.8123C10.5534 10.9452 10.3436 11.1551 10.3436 11.4139C10.3436 11.6728 10.5534 11.8827 10.8123 11.8827H12.6873C12.9462 11.8827 13.156 11.6728 13.156 11.4139C13.156 11.1551 12.9462 10.9452 12.6873 10.9452ZM12.6873 9.07025H10.8123C10.5534 9.07025 10.3436 9.28013 10.3436 9.539C10.3436 9.79788 10.5534 10.0078 10.8123 10.0078H12.6873C12.9462 10.0078 13.156 9.79788 13.156 9.539C13.156 9.28013 12.9462 9.07025 12.6873 9.07025ZM4.24997 7.19528H3.3125C3.05362 7.19528 2.84375 7.40516 2.84375 7.66403C2.84375 7.92291 3.05359 8.13278 3.3125 8.13278H4.24997C4.50884 8.13278 4.71872 7.92291 4.71872 7.66403C4.71869 7.40516 4.50884 7.19528 4.24997 7.19528ZM7.06241 7.19528H6.12494C5.86606 7.19528 5.65619 7.40516 5.65619 7.66403C5.65619 7.92291 5.86603 8.13278 6.12494 8.13278H7.06241C7.32128 8.13278 7.53116 7.92291 7.53116 7.66403C7.53116 7.40516 7.32128 7.19528 7.06241 7.19528ZM4.24997 5.32031H3.3125C3.05362 5.32031 2.84375 5.53019 2.84375 5.78906C2.84375 6.04794 3.05359 6.25781 3.3125 6.25781H4.24997C4.50884 6.25781 4.71872 6.04794 4.71872 5.78906C4.71869 5.53019 4.50884 5.32031 4.24997 5.32031ZM7.06241 5.32031H6.12494C5.86606 5.32031 5.65619 5.53019 5.65619 5.78906C5.65619 6.04794 5.86603 6.25781 6.12494 6.25781H7.06241C7.32128 6.25781 7.53116 6.04794 7.53116 5.78906C7.53116 5.53019 7.32128 5.32031 7.06241 5.32031Z" fill="#4B5563"/>
</svg>
