<svg width="16" height="16" viewBox="0 0 16 16" fill="none" xmlns="http://www.w3.org/2000/svg">
<path d="M7.41417 12.4472C7.49102 12.5241 7.58226 12.5851 7.68267 12.6266C7.78308 12.6682 7.8907 12.6897 7.99938 12.6897C8.10806 12.6897 8.21568 12.6682 8.31609 12.6266C8.4165 12.5851 8.50774 12.5241 8.58459 12.4472L11.7056 9.32624C11.8608 9.17104 11.948 8.96054 11.948 8.74105C11.948 8.52156 11.8608 8.31106 11.7056 8.15586C11.5504 8.00066 11.3399 7.91347 11.1204 7.91347C10.9009 7.91347 10.6904 8.00066 10.5352 8.15586L8.82697 9.8641V0.827586C8.82697 0.608097 8.73977 0.397597 8.58457 0.242394C8.42937 0.0871919 8.21887 0 7.99938 0C7.77989 0 7.56939 0.0871919 7.41419 0.242394C7.25899 0.397597 7.17179 0.608097 7.17179 0.827586V9.8641L5.46355 8.15586C5.30835 8.00066 5.09785 7.91347 4.87836 7.91347C4.65887 7.91347 4.44838 8.00066 4.29317 8.15586C4.13797 8.31106 4.05078 8.52156 4.05078 8.74105C4.05078 8.96054 4.13797 9.17104 4.29317 9.32624L7.41417 12.4472Z" fill="#4B5563"/>
<path d="M15.1724 7.17285C14.9529 7.17285 14.7424 7.26004 14.5872 7.41525C14.432 7.57045 14.3448 7.78095 14.3448 8.00044V14.3453H1.65517V8.00044C1.65517 7.78095 1.56798 7.57045 1.41278 7.41525C1.25758 7.26004 1.04708 7.17285 0.827586 7.17285C0.608097 7.17285 0.397597 7.26004 0.242394 7.41525C0.0871919 7.57045 0 7.78095 0 8.00044V14.6211C0 14.9869 0.14532 15.3378 0.403991 15.5964C0.662661 15.8551 1.01349 16.0004 1.37931 16.0004H14.6207C14.9865 16.0004 15.3373 15.8551 15.596 15.5964C15.8547 15.3378 16 14.9869 16 14.6211V8.00044C16 7.78095 15.9128 7.57045 15.7576 7.41525C15.6024 7.26004 15.3919 7.17285 15.1724 7.17285Z" fill="#4B5563"/>
</svg>
