<svg width="16" height="16" viewBox="0 0 16 16" fill="none" xmlns="http://www.w3.org/2000/svg">
<g clip-path="url(#clip0_1987_29521)">
<path d="M13.0132 13.4551C12.8062 13.4551 12.6383 13.2873 12.6383 13.0802V10.3839C12.6005 10.2889 12.4727 10.0205 12.1412 9.71171C11.7501 9.34727 10.991 8.85248 9.5962 8.56495C9.53629 8.55259 9.48031 8.52577 9.43314 8.48681C9.38598 8.44786 9.34905 8.39796 9.32559 8.34147L8.91278 7.3469C8.83339 7.15566 8.92405 6.93626 9.11532 6.85687C9.30665 6.77752 9.52602 6.86821 9.60535 7.05945L9.94297 7.87289C12.9131 8.54908 13.3586 10.1589 13.3764 10.2286C13.3842 10.259 13.3881 10.2903 13.3881 10.3217V13.0802C13.3882 13.2872 13.2203 13.4551 13.0132 13.4551ZM2.98822 13.4551C2.78113 13.4551 2.61328 13.2873 2.61328 13.0802V10.3216C2.61328 10.2902 2.61722 10.2589 2.62502 10.2285C2.64288 10.1589 3.08831 8.54902 6.05843 7.87283L6.39608 7.0594C6.47546 6.86815 6.69489 6.77754 6.8861 6.85682C7.07738 6.9362 7.16807 7.1556 7.08865 7.34685L6.67584 8.34142C6.65238 8.39791 6.61546 8.44781 6.56829 8.48677C6.52113 8.52572 6.46515 8.55254 6.40523 8.56489C5.0104 8.85245 4.25135 9.34721 3.86022 9.71166C3.52877 10.0205 3.40098 10.2888 3.36315 10.3839V13.0801C3.36318 13.2872 3.1953 13.4551 2.98822 13.4551Z" fill="#4B5563"/>
<path d="M8.00087 7.97994C6.70643 7.97994 5.28341 6.9489 5.01463 4.6463C4.61323 2.84009 5.06279 1.3422 6.24963 0.534579C7.29712 -0.178193 8.70467 -0.178193 9.75213 0.534579C10.939 1.3422 11.3885 2.84009 10.9871 4.6463C10.7183 6.9489 9.29531 7.97994 8.00087 7.97994ZM8.00087 0.755093C7.53185 0.755093 7.06285 0.88826 6.6715 1.15457C5.74841 1.78271 5.41277 3.00255 5.75061 4.50131C5.75363 4.51457 5.75588 4.52799 5.7574 4.5415C5.96803 6.39875 7.03595 7.23007 8.00087 7.23007C8.96579 7.23007 10.0337 6.39875 10.2443 4.5415C10.2459 4.52799 10.2481 4.51457 10.2511 4.50131C10.589 3.00255 10.2533 1.78271 9.33023 1.15457C8.93888 0.88826 8.46986 0.755093 8.00087 0.755093Z" fill="#4B5563"/>
<path d="M5.32586 4.6224C5.3139 4.6224 5.30189 4.62183 5.28976 4.62068C5.08363 4.60098 4.93247 4.41792 4.95217 4.21175C5.02683 3.43033 5.40448 2.87459 6.07458 2.56002C6.54877 2.33744 7.16367 2.2384 8.00899 2.24878C8.53644 2.25517 9.30846 2.29672 9.92026 2.58293C10.5957 2.89891 10.9753 3.44694 11.0484 4.21178C11.0681 4.41792 10.9169 4.60098 10.7108 4.62068C10.5049 4.64055 10.3216 4.48923 10.3019 4.28309C10.2165 3.38951 9.54957 3.01738 7.99991 2.99862C6.4537 2.98039 5.78762 3.35201 5.69864 4.28309C5.68011 4.47708 5.51683 4.6224 5.32586 4.6224ZM8.00029 10.5158C7.9211 10.5158 7.8419 10.4908 7.77524 10.4408L5.41282 8.66802C5.24721 8.54371 5.21367 8.30869 5.33798 8.14307C5.46226 7.97743 5.69726 7.94394 5.86293 8.0682L8.00029 9.6721L10.1377 8.0682C10.3032 7.94389 10.5383 7.9774 10.6626 8.14307C10.7869 8.30869 10.7534 8.54371 10.5878 8.66802L8.22534 10.4408C8.16044 10.4895 8.08146 10.5159 8.00029 10.5158ZM8.00029 15.9994C5.71661 15.9994 3.92773 14.9482 3.92773 13.6062C3.92773 12.2642 5.71661 11.213 8.00029 11.213C10.284 11.213 12.0728 12.2642 12.0728 13.6062C12.0728 14.9482 10.2839 15.9994 8.00029 15.9994ZM8.00029 11.963C7.07432 11.963 6.20957 12.1566 5.56534 12.5083C5.0012 12.8162 4.67763 13.2164 4.67763 13.6063C4.67763 13.9961 5.0012 14.3963 5.56534 14.7043C6.20957 15.0559 7.07434 15.2496 8.00029 15.2496C8.92624 15.2496 9.79101 15.0559 10.4353 14.7043C10.9994 14.3963 11.323 13.9961 11.323 13.6063C11.323 13.2164 10.9994 12.8162 10.4352 12.5083C9.79101 12.1566 8.92624 11.963 8.00029 11.963Z" fill="#4B5563"/>
<path d="M8.0021 14.6682C7.15978 14.6682 6.5 14.2015 6.5 13.6056C6.5 13.0097 7.1598 12.543 8.0021 12.543C8.8444 12.543 9.5042 13.0097 9.5042 13.6056C9.5042 14.2015 8.8444 14.6682 8.0021 14.6682ZM8.0021 13.2929C7.51349 13.2929 7.24987 13.5148 7.24987 13.6056C7.24987 13.6964 7.51346 13.9183 8.0021 13.9183C8.49074 13.9183 8.75433 13.6964 8.75433 13.6056C8.75431 13.5148 8.49072 13.2929 8.0021 13.2929Z" fill="#4B5563"/>
<path d="M8.00002 13.2953C7.79293 13.2953 7.62509 13.1275 7.62509 12.9204V11.5898C7.62509 11.3827 7.79296 11.2148 8.00002 11.2148C8.20711 11.2148 8.37498 11.3827 8.37498 11.5898V12.9204C8.37498 13.1274 8.20708 13.2953 8.00002 13.2953ZM10.9217 15.2201C10.873 15.2201 10.8234 15.2105 10.7757 15.1903L8.77989 14.3454C8.58922 14.2646 8.50005 14.0446 8.58079 13.8539C8.66153 13.6632 8.88164 13.5742 9.07226 13.6548L11.0681 14.4998C11.2587 14.5805 11.3479 14.8005 11.2672 14.9912C11.2066 15.1342 11.0677 15.2201 10.9217 15.2201ZM5.07833 15.2201C4.93225 15.2201 4.7934 15.1342 4.73288 14.9912C4.65217 14.8005 4.74131 14.5805 4.93201 14.4998L6.92778 13.6548C7.11845 13.5741 7.33848 13.6632 7.41922 13.8539C7.49996 14.0446 7.41082 14.2646 7.22012 14.3454L5.22435 15.1903C5.17817 15.21 5.12851 15.2201 5.07833 15.2201Z" fill="#4B5563"/>
</g>
<defs>
<clipPath id="clip0_1987_29521">
<rect width="16" height="16" fill="white"/>
</clipPath>
</defs>
</svg>
