<svg width="16" height="16" viewBox="0 0 16 16" fill="none" xmlns="http://www.w3.org/2000/svg">
<path d="M13.1427 7.99963C12.8271 7.99963 12.5712 8.25546 12.5712 8.57106V14.2853C12.5712 14.6009 12.3154 14.8567 11.9998 14.8567H1.71426C1.39866 14.8567 1.14283 14.6009 1.14283 14.2853V2.85684C1.14283 2.54124 1.39866 2.28541 1.71426 2.28541H8.57131C8.88691 2.28541 9.14275 2.02958 9.14275 1.71398C9.14275 1.39838 8.88691 1.14258 8.57131 1.14258H1.71426C0.767501 1.14258 0 1.91008 0 2.85684V14.2853C0 15.232 0.767501 15.9995 1.71426 15.9995H11.9998C12.9466 15.9995 13.7141 15.232 13.7141 14.2853V8.57103C13.7141 8.25546 13.4583 7.99963 13.1427 7.99963Z" fill="#4B5563"/>
<path d="M15.3584 0.640782C15.1552 0.437601 14.914 0.276435 14.6486 0.166489C14.3831 0.0565434 14.0986 -2.71379e-05 13.8113 9.17338e-06C13.5239 -0.000826312 13.2392 0.0554164 12.9736 0.165475C12.7081 0.275534 12.4671 0.437218 12.2645 0.64115L4.73772 8.1673C4.67528 8.23022 4.62816 8.30667 4.60001 8.39072L3.45718 11.8193C3.35744 12.1187 3.51932 12.4422 3.81875 12.542C3.87684 12.5613 3.93767 12.5712 3.99888 12.5712C4.06023 12.5711 4.12117 12.5613 4.17944 12.5421L7.60797 11.3993C7.69218 11.3712 7.76868 11.3238 7.83139 11.261L15.3581 3.73426C16.2124 2.88007 16.2125 1.49507 15.3584 0.640782ZM14.5502 2.92681L7.12168 10.3553L4.90228 11.0964L5.64112 8.87986L13.0724 1.45141C13.481 1.04367 14.1428 1.04434 14.5505 1.45288C14.7453 1.64804 14.855 1.91226 14.8559 2.18797C14.8562 2.32521 14.8294 2.46115 14.7769 2.58796C14.7244 2.71477 14.6474 2.82994 14.5502 2.92681Z" fill="#4B5563"/>
</svg>
