<svg width="16" height="16" viewBox="0 0 16 16" fill="none" xmlns="http://www.w3.org/2000/svg">
<path d="M15.2005 0H10.4005C10.1883 0 9.9848 0.0842854 9.83477 0.234315C9.68474 0.384344 9.60046 0.587827 9.60046 0.8C9.60046 1.01217 9.68474 1.21566 9.83477 1.36569C9.9848 1.51571 10.1883 1.6 10.4005 1.6H13.2693L6.63486 8.2344C6.55845 8.3082 6.4975 8.39647 6.45557 8.49408C6.41365 8.59168 6.39158 8.69666 6.39066 8.80288C6.38973 8.9091 6.40997 9.01445 6.4502 9.11276C6.49042 9.21108 6.54983 9.3004 6.62494 9.37552C6.70005 9.45063 6.78938 9.51003 6.88769 9.55026C6.98601 9.59048 7.09135 9.61072 7.19758 9.6098C7.3038 9.60888 7.40878 9.58681 7.50638 9.54488C7.60398 9.50296 7.69226 9.44201 7.76606 9.3656L14.4005 2.7312V5.6C14.4005 5.81217 14.4847 6.01566 14.6348 6.16569C14.7848 6.31571 14.9883 6.4 15.2005 6.4C15.4126 6.4 15.6161 6.31571 15.7661 6.16569C15.9162 6.01566 16.0005 5.81217 16.0005 5.6V0.8C16.0005 0.587827 15.9162 0.384344 15.7661 0.234315C15.6161 0.0842854 15.4126 0 15.2005 0Z" fill="#1153DA"/>
<path d="M13.6 6.87001C13.3878 6.87001 13.1843 6.95429 13.0343 7.10432C12.8843 7.25435 12.8 7.45784 12.8 7.67001V13.4004C12.7998 13.6653 12.6944 13.9194 12.5071 14.1067C12.3198 14.2941 12.0657 14.3994 11.8008 14.3996H2.5992C2.33426 14.3994 2.08023 14.2941 1.89289 14.1067C1.70555 13.9194 1.60021 13.6653 1.6 13.4004V4.19881C1.60021 3.93387 1.70555 3.67984 1.89289 3.4925C2.08023 3.30516 2.33426 3.19982 2.5992 3.19961H7.5768C7.78897 3.19961 7.99246 3.11532 8.14249 2.96529C8.29251 2.81527 8.3768 2.61178 8.3768 2.39961C8.3768 2.18744 8.29251 1.98395 8.14249 1.83392C7.99246 1.6839 7.78897 1.59961 7.5768 1.59961H2.5992C1.91011 1.60046 1.24948 1.87457 0.762223 2.36183C0.274962 2.84909 0.00084681 3.50972 0 4.19881V13.3988C0.000423314 14.0882 0.274352 14.7492 0.761659 15.2368C1.24897 15.7244 1.90983 15.9988 2.5992 15.9996H11.7992C12.4886 15.9992 13.1496 15.7253 13.6372 15.238C14.1248 14.7506 14.3992 14.0898 14.4 13.4004V7.67001C14.4 7.45784 14.3157 7.25435 14.1657 7.10432C14.0157 6.95429 13.8122 6.87001 13.6 6.87001Z" fill="#1153DA"/>
</svg>
