<svg width="56" height="47" viewBox="0 0 56 47" fill="none" xmlns="http://www.w3.org/2000/svg">
<path d="M25.9496 35.911C26.2186 36.1327 26.5379 36.3086 26.8893 36.4286C27.2408 36.5486 27.6174 36.6104 27.9978 36.6104C28.3782 36.6104 28.7549 36.5486 29.1063 36.4286C29.4578 36.3086 29.7771 36.1327 30.0461 35.911L40.9696 26.9067C41.5128 26.459 41.8179 25.8517 41.8179 25.2184C41.8179 24.5852 41.5128 23.9779 40.9696 23.5301C40.4263 23.0824 39.6896 22.8308 38.9214 22.8308C38.1532 22.8308 37.4164 23.0824 36.8732 23.5301L30.8944 28.4585V2.38763C30.8944 1.75439 30.5892 1.14709 30.046 0.699322C29.5028 0.251554 28.766 0 27.9978 0C27.2296 0 26.4929 0.251554 25.9497 0.699322C25.4065 1.14709 25.1013 1.75439 25.1013 2.38763V28.4585L19.1224 23.5301C18.5792 23.0824 17.8425 22.8308 17.0743 22.8308C16.3061 22.8308 15.5693 23.0824 15.0261 23.5301C14.4829 23.9779 14.1777 24.5852 14.1777 25.2184C14.1777 25.8517 14.4829 26.459 15.0261 26.9067L25.9496 35.911Z" fill="#4B5563"/>
<path d="M53.1034 20.6943C52.3352 20.6943 51.5985 20.9459 51.0553 21.3937C50.5121 21.8414 50.2069 22.4487 50.2069 23.082V41.3872H5.7931V23.082C5.7931 22.4487 5.48793 21.8414 4.94472 21.3937C4.40151 20.9459 3.66476 20.6943 2.89655 20.6943C2.12834 20.6943 1.39159 20.9459 0.84838 21.3937C0.305172 21.8414 0 22.4487 0 23.082V42.183C0 43.2384 0.508619 44.2506 1.41397 44.9969C2.31932 45.7432 3.54723 46.1624 4.82759 46.1624H51.1724C52.4528 46.1624 53.6807 45.7432 54.586 44.9969C55.4914 44.2506 56 43.2384 56 42.183V23.082C56 22.4487 55.6948 21.8414 55.1516 21.3937C54.6084 20.9459 53.8717 20.6943 53.1034 20.6943Z" fill="#4B5563"/>
</svg>
