<svg width="18" height="17" viewBox="0 0 18 17" fill="none" xmlns="http://www.w3.org/2000/svg">
<path d="M13.9351 0.722656H4.03662C1.81083 0.722656 0 2.53348 0 4.75928V8.62039C0 10.6678 1.53209 12.3641 3.5101 12.6228V16.1961C3.51009 16.2653 3.5237 16.3337 3.55015 16.3976C3.5766 16.4615 3.61538 16.5195 3.66426 16.5684C3.71314 16.6173 3.77117 16.6561 3.83505 16.6826C3.89892 16.709 3.96738 16.7227 4.03651 16.7227C4.17351 16.7227 4.3082 16.6692 4.4089 16.5684L8.32035 12.657H13.9351C16.1609 12.657 17.9717 10.8462 17.9717 8.62039V4.75928C17.9717 2.53348 16.1609 0.722656 13.9351 0.722656ZM16.9187 8.62039C16.9187 10.2655 15.5803 11.604 13.9351 11.604H8.10227C7.9626 11.604 7.82869 11.6594 7.72999 11.7582L4.56313 14.925V12.1305C4.56313 11.8397 4.3274 11.604 4.03662 11.604C2.39147 11.604 1.05303 10.2655 1.05303 8.62039V4.75928C1.05303 3.11413 2.39147 1.77569 4.03662 1.77569H13.9351C15.5803 1.77569 16.9187 3.11413 16.9187 4.75928V8.62039Z" fill="#F9FAFB"/>
<path d="M6.41332 5.20781C6.62392 5.20781 6.74327 4.98316 6.74327 4.72341C6.74327 4.49877 6.64495 4.25306 6.41332 4.25306H3.97737C3.73865 4.25306 3.5 4.36538 3.5 4.59003V9.04779C3.5 9.27244 3.77375 9.38476 4.04758 9.38476C4.32133 9.38476 4.59515 9.27244 4.59515 9.04779V7.23658H5.65517C5.88684 7.23658 5.98512 7.01193 5.98512 6.82238C5.98512 6.59774 5.86577 6.39415 5.65517 6.39415H4.59515V5.20777H6.41332V5.20781ZM9.33383 4.57599C9.25664 4.33028 8.94073 4.21094 8.61777 4.21094C8.29487 4.21094 7.97896 4.33028 7.90178 4.57599L6.59605 8.85824C6.589 8.88633 6.58201 8.91441 6.58201 8.93547C6.58201 9.19521 6.98216 9.38476 7.28403 9.38476C7.45954 9.38476 7.59994 9.3286 7.64203 9.18117L7.88075 8.30365H9.36198L9.60063 9.18117C9.64279 9.3286 9.78319 9.38476 9.95863 9.38476C10.2606 9.38476 10.6606 9.19521 10.6606 8.93547C10.6606 8.91441 10.6537 8.88633 10.6467 8.85824L9.33383 4.57599ZM8.10529 7.46122L8.61777 5.57984L9.13024 7.46122H8.10529ZM13.0825 4.25306C12.1137 4.25306 11.3626 4.69533 11.3626 5.90979V7.77011C11.3626 8.83718 11.9453 9.3075 12.7455 9.40582V9.81299C12.7455 10.0376 12.9141 10.15 13.0825 10.15C13.251 10.15 13.4195 10.0376 13.4195 9.81299V9.40582C14.2198 9.30754 14.8095 8.83718 14.8095 7.77011V5.90979C14.8094 4.69533 14.0513 4.25306 13.0825 4.25306ZM13.7143 7.77011C13.7143 8.09304 13.602 8.29663 13.4195 8.40193V8.09304C13.4195 7.86137 13.251 7.76309 13.0825 7.76309C12.9141 7.76309 12.7455 7.86137 12.7455 8.09304V8.40193C12.556 8.29663 12.4577 8.09304 12.4577 7.77011V5.90979C12.4577 5.43242 12.6894 5.20781 13.0825 5.20781C13.4757 5.20781 13.7143 5.43245 13.7143 5.90979V7.77011Z" fill="#F9FAFB"/>
</svg>
