<svg width="20" height="20" viewBox="0 0 20 20" fill="none" xmlns="http://www.w3.org/2000/svg">
<path d="M10 0C4.47301 0 0 4.4725 0 10C0 15.5269 4.4725 20 10 20C15.527 20 20 15.5275 20 10C20 4.47301 15.5275 0 10 0ZM10 18.6046C5.25539 18.6046 1.39535 14.7446 1.39535 10C1.39535 5.25535 5.25539 1.39535 10 1.39535C14.7446 1.39535 18.6046 5.25535 18.6046 10C18.6046 14.7446 14.7446 18.6046 10 18.6046Z" fill="#F9FAFB"/>
<path d="M9.70328 12.6525C9.15043 12.6525 8.70289 13.1132 8.70289 13.6661C8.70289 14.2058 9.13727 14.6796 9.70328 14.6796C10.2693 14.6796 10.7168 14.2058 10.7168 13.6661C10.7168 13.1132 10.2561 12.6525 9.70328 12.6525ZM9.87437 4.97852C8.09734 4.97852 7.28125 6.0316 7.28125 6.74238C7.28125 7.25574 7.71563 7.4927 8.07102 7.4927C8.78184 7.4927 8.49227 6.4791 9.83488 6.4791C10.493 6.4791 11.0196 6.76871 11.0196 7.37422C11.0196 8.085 10.2824 8.49305 9.84805 8.8616C9.46629 9.19063 8.96613 9.73035 8.96613 10.8624C8.96613 11.5468 9.15043 11.7443 9.69008 11.7443C10.335 11.7443 10.4667 11.4547 10.4667 11.2046C10.4667 10.5201 10.4798 10.1252 11.2038 9.55922C11.5592 9.28281 12.678 8.3877 12.678 7.15039C12.678 5.91309 11.5592 4.97852 9.87437 4.97852Z" fill="#F9FAFB"/>
</svg>
