<svg width="54" height="63" viewBox="0 0 54 63" fill="none" xmlns="http://www.w3.org/2000/svg">
<path d="M27.6125 1V0.95H27.6625H49.0833C50.2778 0.95 51.3214 1.46635 52.2127 2.49221C53.104 3.51803 53.55 4.71581 53.55 6.08333V56.9167C53.55 58.2842 53.104 59.482 52.2127 60.5078C51.3214 61.5336 50.2778 62.05 49.0833 62.05H27.6625H27.6125V62V56.9167V56.8667H27.6625H49.0333V6.13333H27.6625H27.6125V6.08333V1ZM13.3461 46.3592L13.3083 46.4026L13.2706 46.3592L0.462257 31.6175L0.433765 31.5847L0.462257 31.5519L13.4178 16.6408L13.4556 16.5974L13.4933 16.6408L16.6586 20.2839L16.6871 20.3167L16.6586 20.3495L9.22218 28.9083H34.7292H34.7792V28.9583V34.0417V34.0917H34.7292H9.07496L16.5114 42.6505L16.5398 42.6833L16.5114 42.7161L13.3461 46.3592Z" fill="#4B5563" stroke="#4B5563" stroke-width="0.1"/>
</svg>
