<svg width="15" height="17" viewBox="0 0 15 17" fill="none" xmlns="http://www.w3.org/2000/svg">
<path d="M7.38253 0.810547V0.760547H7.43253H13.1591C13.4902 0.760547 13.7788 0.901579 14.0231 1.1774C14.2673 1.45319 14.3898 1.77609 14.3898 2.14388V15.4772C14.3898 15.845 14.2673 16.1679 14.0231 16.4437C13.7788 16.7195 13.4902 16.8605 13.1591 16.8605H7.43253H7.38253V16.8105V15.4772V15.4272H7.43253H13.1091V2.19388H7.43253H7.38253V2.14388V0.810547ZM3.63256 12.7326L3.59513 12.7749L3.5577 12.7326L0.133554 8.86592L0.1042 8.83277L0.133554 8.79962L3.59705 4.88851L3.63449 4.84624L3.67192 4.88851L4.51811 5.84407L4.54747 5.87721L4.51811 5.91036L2.58449 8.09388H9.32171H9.37171V8.14388V9.47721V9.52721H9.32171H2.54513L4.47876 11.7107L4.50811 11.7439L4.47876 11.777L3.63256 12.7326Z" fill="#F9FAFB" stroke="#F9FAFB" stroke-width="0.1"/>
</svg>
