<svg width="16" height="16" viewBox="0 0 16 16" fill="none" xmlns="http://www.w3.org/2000/svg">
<path d="M15.0625 5.70563V4.21875C15.0625 3.44334 14.4317 2.8125 13.6562 2.8125H12.9129L10.238 0.137625C10.2375 0.137062 10.2368 0.136531 10.2362 0.135937C10.1501 0.0508592 10.0345 0.00228768 9.9135 0.00034375C9.91106 0.0003125 9.90872 0 9.90628 0H3.28125C3.02238 0 2.8125 0.209875 2.8125 0.46875V2.8125H2.34375C1.56834 2.8125 0.9375 3.44334 0.9375 4.21875V5.70563C0.391906 5.89913 0 6.42016 0 7.03125V12.7188C0 13.4942 0.630844 14.125 1.40625 14.125H2.8125V15.5312C2.8125 15.7901 3.02238 16 3.28125 16H12.7188C12.9776 16 13.1875 15.7901 13.1875 15.5312V14.125H14.5938C15.3692 14.125 16 13.4942 16 12.7188V7.03125C16 6.42016 15.6081 5.89913 15.0625 5.70563ZM13.1875 3.75H13.6562C13.9147 3.75 14.125 3.96028 14.125 4.21875V5.625H13.1875V3.75ZM10.375 1.60041L11.5871 2.8125H10.375V1.60041ZM3.75 0.9375H9.4375V3.28125C9.4375 3.54012 9.64738 3.75 9.90625 3.75H12.25V5.625H3.75V0.9375ZM1.875 4.21875C1.875 3.96028 2.08528 3.75 2.34375 3.75H2.8125V5.625H1.875V4.21875ZM12.25 15.0625H3.75V10.375H12.25V15.0625ZM15.0625 12.7188C15.0625 12.9772 14.8522 13.1875 14.5938 13.1875H13.1875V10.375H13.6562C13.9151 10.375 14.125 10.1651 14.125 9.90625C14.125 9.64738 13.9151 9.4375 13.6562 9.4375H2.34375C2.08488 9.4375 1.875 9.64738 1.875 9.90625C1.875 10.1651 2.08488 10.375 2.34375 10.375H2.8125V13.1875H1.40625C1.14778 13.1875 0.9375 12.9772 0.9375 12.7188V7.03125C0.9375 6.77278 1.14778 6.5625 1.40625 6.5625H14.5938C14.8522 6.5625 15.0625 6.77278 15.0625 7.03125V12.7188Z" fill="#4B5563"/>
</svg>
