<svg width="18" height="18" viewBox="0 0 18 18" fill="none" xmlns="http://www.w3.org/2000/svg">
<path d="M11.4581 7.4183L11.4582 7.4184L11.4607 7.41546C11.5625 7.29659 11.6157 7.14368 11.6097 6.98729C11.6036 6.83089 11.5388 6.68254 11.4281 6.57187C11.3175 6.46121 11.1691 6.39637 11.0127 6.39033C10.8563 6.38429 10.7034 6.43749 10.5845 6.53929L10.5844 6.53918L10.5817 6.54191L9 8.12362L7.4183 6.54191L7.4184 6.54181L7.41546 6.53929C7.29659 6.43749 7.14368 6.38429 6.98729 6.39033C6.83089 6.39637 6.68254 6.46121 6.57187 6.57187C6.46121 6.68254 6.39637 6.83089 6.39033 6.98729C6.38429 7.14368 6.43749 7.29659 6.53929 7.41546L6.53918 7.41556L6.54191 7.4183L8.12362 9L6.54191 10.5817L6.54181 10.5818C6.42607 10.6982 6.36111 10.8557 6.36111 11.0199C6.36111 11.1841 6.42607 11.3416 6.54181 11.458L6.54202 11.4582C6.65844 11.5739 6.81594 11.6389 6.9801 11.6389C7.14427 11.6389 7.30176 11.5739 7.41819 11.4582L7.4183 11.4581L9 9.87638L10.5817 11.4581L10.5818 11.4582C10.6982 11.5739 10.8557 11.6389 11.0199 11.6389C11.1841 11.6389 11.3416 11.5739 11.458 11.4582L11.4582 11.458C11.5739 11.3416 11.6389 11.1841 11.6389 11.0199C11.6389 10.8557 11.5739 10.6982 11.4582 10.5818L11.4581 10.5817L9.87638 9L11.4581 7.4183ZM14.6922 3.30779C13.1825 1.79812 11.135 0.95 9 0.95C6.86501 0.95 4.81746 1.79812 3.30779 3.30779C1.79812 4.81746 0.95 6.86501 0.95 9C0.95 11.135 1.79812 13.1825 3.30779 14.6922C4.81746 16.2019 6.86501 17.05 9 17.05C11.135 17.05 13.1825 16.2019 14.6922 14.6922C16.2019 13.1825 17.05 11.135 17.05 9C17.05 6.86501 16.2019 4.81746 14.6922 3.30779ZM13.8159 13.8158C12.863 14.7653 11.6501 15.4113 10.3304 15.672C9.01063 15.9327 7.64322 15.7966 6.40082 15.2807C5.15841 14.7648 4.09673 13.8923 3.34984 12.7735C2.60294 11.6546 2.20433 10.3395 2.20433 8.99429C2.20433 7.64904 2.60294 6.33395 3.34984 5.21509C4.09673 4.09623 5.15841 3.22378 6.40082 2.70789C7.64322 2.19201 9.01063 2.05583 10.3304 2.31656C11.6501 2.57729 12.863 3.22323 13.8159 4.17281C14.4505 4.80518 14.954 5.5566 15.2975 6.38398C15.6411 7.21136 15.8179 8.09842 15.8179 8.99429C15.8179 9.89016 15.6411 10.7772 15.2975 11.6046C14.954 12.432 14.4505 13.1834 13.8159 13.8158Z" fill="#4B5563" stroke="#4B5563" stroke-width="0.1"/>
</svg>
