<svg width="56" height="56" viewBox="0 0 56 56" fill="none" xmlns="http://www.w3.org/2000/svg">
<path d="M49 55.5625H17.5C16.2241 55.5611 15.0008 55.0536 14.0986 54.1514C13.1964 53.2492 12.6889 52.0259 12.6875 50.75V43.75C12.6875 43.4019 12.8258 43.0681 13.0719 42.8219C13.3181 42.5758 13.6519 42.4375 14 42.4375C14.3481 42.4375 14.6819 42.5758 14.9281 42.8219C15.1742 43.0681 15.3125 43.4019 15.3125 43.75V50.75C15.3125 51.9575 16.2925 52.9375 17.5 52.9375H49C50.2075 52.9375 51.1875 51.9575 51.1875 50.75V11.0425L43.2075 3.0625H17.5C16.2925 3.0625 15.3125 4.0425 15.3125 5.25V12.25C15.3125 12.5981 15.1742 12.9319 14.9281 13.1781C14.6819 13.4242 14.3481 13.5625 14 13.5625C13.6519 13.5625 13.3181 13.4242 13.0719 13.1781C12.8258 12.9319 12.6875 12.5981 12.6875 12.25V5.25C12.6889 3.97407 13.1964 2.7508 14.0986 1.84858C15.0008 0.946366 16.2241 0.43889 17.5 0.4375H43.75C44.1 0.4375 44.4325 0.5775 44.6775 0.8225L53.4275 9.5725C53.6725 9.8175 53.8125 10.1517 53.8125 10.5V50.75C53.8111 52.0259 53.3036 53.2492 52.4014 54.1514C51.4992 55.0536 50.2759 55.5611 49 55.5625Z" fill="#4B5563"/>
<path d="M52.5005 11.8125H43.7505C43.4024 11.8125 43.0685 11.6742 42.8224 11.4281C42.5763 11.1819 42.438 10.8481 42.438 10.5V1.75C42.438 1.4019 42.5763 1.06806 42.8224 0.821922C43.0685 0.575781 43.4024 0.4375 43.7505 0.4375C44.0986 0.4375 44.4324 0.575781 44.6786 0.821922C44.9247 1.06806 45.063 1.4019 45.063 1.75V9.1875H52.5005C52.8486 9.1875 53.1824 9.32578 53.4286 9.57192C53.6747 9.81806 53.813 10.1519 53.813 10.5C53.813 10.8481 53.6747 11.1819 53.4286 11.4281C53.1824 11.6742 52.8486 11.8125 52.5005 11.8125ZM24.5005 11.8125H21.0005C20.6524 11.8125 20.3185 11.6742 20.0724 11.4281C19.8263 11.1819 19.688 10.8481 19.688 10.5C19.688 10.1519 19.8263 9.81806 20.0724 9.57192C20.3185 9.32578 20.6524 9.1875 21.0005 9.1875H24.5005C24.8486 9.1875 25.1824 9.32578 25.4285 9.57192C25.6747 9.81806 25.813 10.1519 25.813 10.5C25.813 10.8481 25.6747 11.1819 25.4285 11.4281C25.1824 11.6742 24.8486 11.8125 24.5005 11.8125ZM45.5005 18.8125H42.0005C41.6524 18.8125 41.3185 18.6742 41.0724 18.4281C40.8263 18.1819 40.688 17.8481 40.688 17.5C40.688 17.1519 40.8263 16.8181 41.0724 16.5719C41.3185 16.3258 41.6524 16.1875 42.0005 16.1875H45.5005C45.8486 16.1875 46.1824 16.3258 46.4286 16.5719C46.6747 16.8181 46.813 17.1519 46.813 17.5C46.813 17.8481 46.6747 18.1819 46.4286 18.4281C46.1824 18.6742 45.8486 18.8125 45.5005 18.8125ZM36.7505 11.8125H29.7505C29.4024 11.8125 29.0685 11.6742 28.8224 11.4281C28.5763 11.1819 28.438 10.8481 28.438 10.5C28.438 10.1519 28.5763 9.81806 28.8224 9.57192C29.0685 9.32578 29.4024 9.1875 29.7505 9.1875H36.7505C37.0986 9.1875 37.4324 9.32578 37.6786 9.57192C37.9247 9.81806 38.063 10.1519 38.063 10.5C38.063 10.8481 37.9247 11.1819 37.6786 11.4281C37.4324 11.6742 37.0986 11.8125 36.7505 11.8125ZM45.5005 46.8125H42.0005C41.6524 46.8125 41.3185 46.6742 41.0724 46.4281C40.8263 46.1819 40.688 45.8481 40.688 45.5C40.688 45.1519 40.8263 44.8181 41.0724 44.5719C41.3185 44.3258 41.6524 44.1875 42.0005 44.1875H45.5005C45.8486 44.1875 46.1824 44.3258 46.4286 44.5719C46.6747 44.8181 46.813 45.1519 46.813 45.5C46.813 45.8481 46.6747 46.1819 46.4286 46.4281C46.1824 46.6742 45.8486 46.8125 45.5005 46.8125ZM45.5005 39.8125H29.7505C29.4024 39.8125 29.0685 39.6742 28.8224 39.4281C28.5763 39.1819 28.438 38.8481 28.438 38.5C28.438 38.1519 28.5763 37.8181 28.8224 37.5719C29.0685 37.3258 29.4024 37.1875 29.7505 37.1875H45.5005C45.8486 37.1875 46.1824 37.3258 46.4286 37.5719C46.6747 37.8181 46.813 38.1519 46.813 38.5C46.813 38.8481 46.6747 39.1819 46.4286 39.4281C46.1824 39.6742 45.8486 39.8125 45.5005 39.8125ZM36.7505 18.8125H25.7255C25.3774 18.8125 25.0435 18.6742 24.7974 18.4281C24.5513 18.1819 24.413 17.8481 24.413 17.5C24.413 17.1519 24.5513 16.8181 24.7974 16.5719C25.0435 16.3258 25.3774 16.1875 25.7255 16.1875H36.7505C37.0986 16.1875 37.4324 16.3258 37.6786 16.5719C37.9247 16.8181 38.063 17.1519 38.063 17.5C38.063 17.8481 37.9247 18.1819 37.6786 18.4281C37.4324 18.6742 37.0986 18.8125 36.7505 18.8125ZM36.7505 46.8125H21.0005C20.6524 46.8125 20.3185 46.6742 20.0724 46.4281C19.8263 46.1819 19.688 45.8481 19.688 45.5C19.688 45.1519 19.8263 44.8181 20.0724 44.5719C20.3185 44.3258 20.6524 44.1875 21.0005 44.1875H36.7505C37.0986 44.1875 37.4324 44.3258 37.6786 44.5719C37.9247 44.8181 38.063 45.1519 38.063 45.5C38.063 45.8481 37.9247 46.1819 37.6786 46.4281C37.4324 46.6742 37.0986 46.8125 36.7505 46.8125ZM45.5005 25.8125H29.3655C29.0174 25.8125 28.6835 25.6742 28.4374 25.4281C28.1913 25.1819 28.053 24.8481 28.053 24.5C28.053 24.1519 28.1913 23.8181 28.4374 23.5719C28.6835 23.3258 29.0174 23.1875 29.3655 23.1875H45.5005C45.8486 23.1875 46.1824 23.3258 46.4286 23.5719C46.6747 23.8181 46.813 24.1519 46.813 24.5C46.813 24.8481 46.6747 25.1819 46.4286 25.4281C46.1824 25.6742 45.8486 25.8125 45.5005 25.8125ZM45.5005 32.8125H29.3655C29.0174 32.8125 28.6835 32.6742 28.4374 32.4281C28.1913 32.1819 28.053 31.8481 28.053 31.5C28.053 31.1519 28.1913 30.8181 28.4374 30.5719C28.6835 30.3258 29.0174 30.1875 29.3655 30.1875H45.5005C45.8486 30.1875 46.1824 30.3258 46.4286 30.5719C46.6747 30.8181 46.813 31.1519 46.813 31.5C46.813 31.8481 46.6747 32.1819 46.4286 32.4281C46.1824 32.6742 45.8486 32.8125 45.5005 32.8125ZM11.6082 31.7048C11.3488 31.7045 11.0953 31.6274 10.8796 31.4832C10.664 31.339 10.496 31.1341 10.3967 30.8944C10.2975 30.6547 10.2715 30.391 10.322 30.1365C10.3726 29.8821 10.4974 29.6483 10.6807 29.4648L15.4652 24.6803C15.5854 24.5513 15.7303 24.4479 15.8913 24.3761C16.0523 24.3044 16.2261 24.2658 16.4023 24.2627C16.5785 24.2596 16.7536 24.292 16.917 24.358C17.0804 24.424 17.2289 24.5223 17.3535 24.6469C17.4782 24.7716 17.5764 24.92 17.6424 25.0835C17.7084 25.2469 17.7409 25.4219 17.7378 25.5982C17.7346 25.7744 17.6961 25.9482 17.6243 26.1092C17.5526 26.2702 17.4492 26.4151 17.3202 26.5352L12.5357 31.3197C12.4141 31.4418 12.2695 31.5387 12.1104 31.6047C11.9512 31.6708 11.7806 31.7048 11.6082 31.7048Z" fill="#4B5563"/>
<path d="M16.3915 31.704C16.2191 31.704 16.0485 31.67 15.8893 31.6039C15.7302 31.5379 15.5856 31.441 15.464 31.319L10.6795 26.5345C10.5505 26.4143 10.4471 26.2694 10.3753 26.1084C10.3036 25.9474 10.265 25.7736 10.2619 25.5974C10.2588 25.4211 10.2912 25.2461 10.3572 25.0827C10.4233 24.9192 10.5215 24.7708 10.6461 24.6461C10.7708 24.5215 10.9192 24.4233 11.0827 24.3572C11.2461 24.2912 11.4211 24.2588 11.5974 24.2619C11.7736 24.265 11.9474 24.3036 12.1084 24.3753C12.2694 24.4471 12.4143 24.5505 12.5345 24.6795L17.319 29.464C17.5023 29.6475 17.6271 29.8813 17.6776 30.1357C17.7282 30.3902 17.7022 30.6539 17.603 30.8936C17.5037 31.1333 17.3357 31.3382 17.12 31.4824C16.9044 31.6266 16.6509 31.7037 16.3915 31.704Z" fill="#4B5563"/>
<path d="M14 39.8125C7.4865 39.8125 2.1875 34.5135 2.1875 28C2.1875 21.4865 7.4865 16.1875 14 16.1875C20.5135 16.1875 25.8125 21.4865 25.8125 28C25.8125 34.5135 20.5135 39.8125 14 39.8125ZM14 18.8125C8.93375 18.8125 4.8125 22.9338 4.8125 28C4.8125 33.0662 8.93375 37.1875 14 37.1875C19.0662 37.1875 23.1875 33.0662 23.1875 28C23.1875 22.9338 19.0662 18.8125 14 18.8125Z" fill="#4B5563"/>
</svg>
