<svg width="18" height="18" viewBox="0 0 18 18" fill="none" xmlns="http://www.w3.org/2000/svg">
<path d="M9 1C7.41775 1 5.87103 1.46919 4.55544 2.34824C3.23985 3.22729 2.21447 4.47672 1.60897 5.93853C1.00347 7.40034 0.84504 9.00887 1.15372 10.5607C1.4624 12.1126 2.22433 13.538 3.34315 14.6569C4.46197 15.7757 5.88743 16.5376 7.43928 16.8463C8.99113 17.155 10.5997 16.9965 12.0615 16.391C13.5233 15.7855 14.7727 14.7602 15.6518 13.4446C16.5308 12.129 17 10.5822 17 9C16.9975 6.87904 16.1538 4.84566 14.6541 3.34591C13.1543 1.84616 11.121 1.0025 9 1ZM9 15.5455C7.70543 15.5455 6.43994 15.1616 5.36354 14.4423C4.28715 13.7231 3.4482 12.7009 2.95279 11.5048C2.45738 10.3088 2.32776 8.99274 2.58032 7.72304C2.83288 6.45335 3.45627 5.28706 4.37167 4.37166C5.28707 3.45627 6.45335 2.83287 7.72305 2.58031C8.99274 2.32776 10.3088 2.45738 11.5048 2.95279C12.7009 3.4482 13.7231 4.28715 14.4423 5.36354C15.1616 6.43993 15.5455 7.70543 15.5455 9C15.5435 10.7354 14.8533 12.3991 13.6262 13.6262C12.3991 14.8533 10.7354 15.5435 9 15.5455Z" fill="#4B5563"/>
<path d="M11.9087 8.27344H6.09055C5.89767 8.27344 5.71268 8.35006 5.57629 8.48645C5.4399 8.62284 5.36328 8.80783 5.36328 9.00071C5.36328 9.19359 5.4399 9.37858 5.57629 9.51497C5.71268 9.65136 5.89767 9.72798 6.09055 9.72798H11.9087C12.1016 9.72798 12.2866 9.65136 12.423 9.51497C12.5594 9.37858 12.636 9.19359 12.636 9.00071C12.636 8.80783 12.5594 8.62284 12.423 8.48645C12.2866 8.35006 12.1016 8.27344 11.9087 8.27344Z" fill="#4B5563"/>
</svg>
