<svg width="16" height="16" viewBox="0 0 16 16" fill="none" xmlns="http://www.w3.org/2000/svg">
<path d="M8 0C6.41775 0 4.87103 0.469192 3.55544 1.34824C2.23985 2.22729 1.21447 3.47672 0.608967 4.93853C0.0034663 6.40034 -0.15496 8.00887 0.153721 9.56072C0.462403 11.1126 1.22433 12.538 2.34315 13.6569C3.46197 14.7757 4.88743 15.5376 6.43928 15.8463C7.99113 16.155 9.59966 15.9965 11.0615 15.391C12.5233 14.7855 13.7727 13.7602 14.6518 12.4446C15.5308 11.129 16 9.58225 16 8C15.9975 5.87904 15.1538 3.84566 13.6541 2.34591C12.1543 0.84616 10.121 0.00250216 8 0ZM8 14.5455C6.70543 14.5455 5.43994 14.1616 4.36354 13.4423C3.28715 12.7231 2.4482 11.7009 1.95279 10.5048C1.45738 9.30881 1.32776 7.99274 1.58032 6.72304C1.83288 5.45335 2.45627 4.28706 3.37167 3.37166C4.28707 2.45627 5.45335 1.83287 6.72305 1.58031C7.99274 1.32776 9.30881 1.45738 10.5048 1.95279C11.7009 2.4482 12.7231 3.28715 13.4423 4.36354C14.1616 5.43993 14.5455 6.70543 14.5455 8C14.5435 9.73537 13.8533 11.3991 12.6262 12.6262C11.3991 13.8533 9.73537 14.5435 8 14.5455Z" fill="#1153DA"/>
<path d="M10.9087 7.27344H5.09055C4.89767 7.27344 4.71268 7.35006 4.57629 7.48645C4.4399 7.62284 4.36328 7.80783 4.36328 8.00071C4.36328 8.19359 4.4399 8.37858 4.57629 8.51497C4.71268 8.65136 4.89767 8.72798 5.09055 8.72798H10.9087C11.1016 8.72798 11.2866 8.65136 11.423 8.51497C11.5594 8.37858 11.636 8.19359 11.636 8.00071C11.636 7.80783 11.5594 7.62284 11.423 7.48645C11.2866 7.35006 11.1016 7.27344 10.9087 7.27344Z" fill="#1153DA"/>
</svg>
