<svg width="20" height="20" viewBox="0 0 20 20" fill="none" xmlns="http://www.w3.org/2000/svg">
<path d="M16.4283 10.001C16.0338 10.001 15.714 10.3208 15.714 10.7153V17.858C15.714 18.2525 15.3943 18.5723 14.9998 18.5723H2.14283C1.74833 18.5723 1.42854 18.2525 1.42854 17.858V3.57252C1.42854 3.17802 1.74833 2.85823 2.14283 2.85823H10.7141C11.1086 2.85823 11.4284 2.53843 11.4284 2.14394C11.4284 1.74944 11.1086 1.42969 10.7141 1.42969H2.14283C0.959376 1.42969 0 2.38906 0 3.57252V17.858C0 19.0415 0.959376 20.0009 2.14283 20.0009H14.9998C16.1833 20.0009 17.1426 19.0415 17.1426 17.858V10.7153C17.1426 10.3208 16.8228 10.001 16.4283 10.001Z" fill="#1153DA"/>
<path d="M19.1985 0.800977C18.9445 0.547002 18.643 0.345543 18.3112 0.208111C17.9794 0.0706792 17.6238 -3.39224e-05 17.2646 1.14667e-05C16.9054 -0.00103289 16.5494 0.0692705 16.2175 0.206844C15.8856 0.344418 15.5843 0.546523 15.3311 0.801438L5.92264 10.2091C5.84459 10.2878 5.78569 10.3833 5.7505 10.4884L4.32196 14.7741C4.19728 15.1483 4.39964 15.5528 4.77392 15.6774C4.84653 15.7016 4.92258 15.714 4.99909 15.7141C5.07577 15.7139 5.15195 15.7016 5.22479 15.6777L9.51045 14.2491C9.61571 14.214 9.71134 14.1548 9.78973 14.0763L19.1982 4.66782C20.266 3.60009 20.2662 1.86883 19.1985 0.800977ZM18.1882 3.65851L8.90259 12.9441L6.12834 13.8705L7.05189 11.0998L16.3411 1.81426C16.8517 1.30458 17.6789 1.30542 18.1886 1.8161C18.4321 2.06005 18.5693 2.39032 18.5703 2.73496C18.5707 2.90651 18.5372 3.07644 18.4716 3.23495C18.406 3.39347 18.3097 3.53742 18.1882 3.65851Z" fill="#1153DA"/>
</svg>
