<svg width="18" height="21" viewBox="0 0 18 21" fill="none" xmlns="http://www.w3.org/2000/svg">
<path d="M9.2834 5.72043C9.4728 5.72043 9.65443 5.6452 9.78835 5.51128C9.92227 5.37736 9.99751 5.19572 9.99751 5.00633C9.99751 4.81694 9.92227 4.6353 9.78835 4.50138C9.65443 4.36746 9.4728 4.29223 9.2834 4.29223H8.5693C8.5693 4.10284 8.49407 3.9212 8.36015 3.78728C8.22623 3.65336 8.04459 3.57812 7.8552 3.57812C7.66581 3.57812 7.48417 3.65336 7.35025 3.78728C7.21633 3.9212 7.1411 4.10284 7.1411 4.29223C6.76231 4.29223 6.39904 4.4427 6.1312 4.71054C5.86336 4.97838 5.71289 5.34165 5.71289 5.72043V6.43454C5.71289 6.81332 5.86336 7.17659 6.1312 7.44443C6.39904 7.71227 6.76231 7.86274 7.1411 7.86274H8.5693V8.57684H6.42699C6.2376 8.57684 6.05597 8.65208 5.92205 8.786C5.78813 8.91992 5.71289 9.10156 5.71289 9.29095C5.71289 9.48034 5.78813 9.66197 5.92205 9.79589C6.05597 9.92981 6.2376 10.005 6.42699 10.005H7.1411C7.1411 10.1944 7.21633 10.3761 7.35025 10.51C7.48417 10.6439 7.66581 10.7192 7.8552 10.7192C8.04459 10.7192 8.22623 10.6439 8.36015 10.51C8.49407 10.3761 8.5693 10.1944 8.5693 10.005C8.94809 10.005 9.31135 9.85458 9.5792 9.58674C9.84704 9.3189 9.99751 8.95563 9.99751 8.57684V7.86274C9.99751 7.48396 9.84704 7.12069 9.5792 6.85285C9.31135 6.58501 8.94809 6.43454 8.5693 6.43454H7.1411V5.72043H9.2834ZM16.9314 15.2109C16.8651 15.1439 16.7861 15.0908 16.6991 15.0545C16.612 15.0183 16.5187 14.9996 16.4244 14.9996C16.3302 14.9996 16.2368 15.0183 16.1498 15.0545C16.0628 15.0908 15.9838 15.1439 15.9174 15.2109L15.6818 15.4465C15.6312 14.823 15.4176 14.2237 15.0625 13.7086C14.7074 13.1936 14.2232 12.7809 13.6584 12.5118C13.0936 12.2428 12.468 12.1269 11.8443 12.1757C11.2206 12.2246 10.6207 12.4364 10.1046 12.7901C9.96002 12.9021 9.86395 13.0655 9.83626 13.2463C9.80856 13.4272 9.85134 13.6118 9.95577 13.762C10.0602 13.9123 10.2183 14.0167 10.3975 14.0537C10.5767 14.0908 10.7632 14.0577 10.9187 13.9612C11.2769 13.7111 11.703 13.5766 12.1398 13.5756C12.6554 13.5695 13.1559 13.7495 13.5494 14.0827C13.9429 14.4159 14.2031 14.8798 14.2821 15.3894L14.1107 15.2109C14.0442 15.1443 13.9651 15.0915 13.8781 15.0554C13.7911 15.0194 13.6979 15.0008 13.6037 15.0008C13.5096 15.0008 13.4163 15.0194 13.3293 15.0554C13.2423 15.0915 13.1633 15.1443 13.0967 15.2109C13.0301 15.2774 12.9773 15.3565 12.9413 15.4435C12.9052 15.5305 12.8867 15.6237 12.8867 15.7179C12.8867 15.812 12.9052 15.9053 12.9413 15.9923C12.9773 16.0793 13.0301 16.1583 13.0967 16.2249L14.5249 17.6531C14.5913 17.72 14.6703 17.7731 14.7573 17.8094C14.8443 17.8457 14.9377 17.8643 15.0319 17.8643C15.1262 17.8643 15.2195 17.8457 15.3066 17.8094C15.3936 17.7731 15.4726 17.72 15.5389 17.6531L16.9672 16.2249C17.0318 16.1562 17.0822 16.0753 17.1154 15.987C17.1486 15.8987 17.164 15.8047 17.1607 15.7104C17.1574 15.6161 17.1354 15.5234 17.0961 15.4377C17.0567 15.352 17.0008 15.2749 16.9314 15.2109ZM13.3609 18.9028C13.0027 19.1528 12.5766 19.2874 12.1398 19.2884C11.6304 19.2859 11.1384 19.102 10.7524 18.7696C10.3663 18.4371 10.1113 17.978 10.0332 17.4746L10.2046 17.6531C10.271 17.72 10.35 17.7731 10.437 17.8094C10.524 17.8457 10.6173 17.8643 10.7116 17.8643C10.8059 17.8643 10.8992 17.8457 10.9862 17.8094C11.0733 17.7731 11.1522 17.72 11.2186 17.6531C11.2856 17.5867 11.3387 17.5077 11.3749 17.4207C11.4112 17.3337 11.4299 17.2403 11.4299 17.1461C11.4299 17.0518 11.4112 16.9585 11.3749 16.8714C11.3387 16.7844 11.2856 16.7055 11.2186 16.6391L9.79042 15.2109C9.72403 15.1439 9.64505 15.0908 9.55803 15.0545C9.47101 15.0183 9.37767 14.9996 9.2834 14.9996C9.18913 14.9996 9.0958 15.0183 9.00878 15.0545C8.92176 15.0908 8.84278 15.1439 8.77639 15.2109L7.34819 16.6391C7.21372 16.7735 7.13817 16.9559 7.13817 17.1461C7.13817 17.3362 7.21372 17.5186 7.34819 17.6531C7.48265 17.7876 7.66503 17.8631 7.8552 17.8631C8.04537 17.8631 8.22774 17.7876 8.36221 17.6531L8.59787 17.4174C8.64848 18.041 8.86203 18.6403 9.21715 19.1553C9.57226 19.6704 10.0565 20.0831 10.6213 20.3521C11.1861 20.6211 11.8116 20.737 12.4353 20.6882C13.059 20.6394 13.659 20.4275 14.175 20.0739C14.2573 20.0228 14.3284 19.9555 14.3839 19.876C14.4394 19.7966 14.4781 19.7067 14.4977 19.6118C14.5174 19.5169 14.5175 19.419 14.4981 19.3241C14.4786 19.2291 14.4401 19.1391 14.3848 19.0596C14.3295 18.98 14.2586 18.9125 14.1763 18.8612C14.0941 18.81 14.0023 18.776 13.9065 18.7613C13.8108 18.7466 13.713 18.7516 13.6192 18.7759C13.5254 18.8002 13.4375 18.8434 13.3609 18.9028Z" fill="#F9FAFB"/>
<path d="M7.02677 18.9037L6.41264 19.2108L5.2915 18.7109C5.19944 18.6695 5.09965 18.6481 4.99872 18.6481C4.89779 18.6481 4.798 18.6695 4.70594 18.7109L3.57051 19.2179L2.43509 18.7109C2.34303 18.6695 2.24324 18.6481 2.14231 18.6481C2.04137 18.6481 1.94159 18.6695 1.84953 18.7109L1.42821 18.8966V2.86496C1.42821 2.67557 1.50344 2.49394 1.63736 2.36002C1.77128 2.2261 1.95292 2.15086 2.14231 2.15086H13.568C13.7573 2.15086 13.939 2.2261 14.0729 2.36002C14.2068 2.49394 14.2821 2.67557 14.2821 2.86496V10.7201C14.2821 10.9095 14.3573 11.0911 14.4912 11.225C14.6251 11.359 14.8068 11.4342 14.9962 11.4342C15.1856 11.4342 15.3672 11.359 15.5011 11.225C15.635 11.0911 15.7103 10.9095 15.7103 10.7201V2.86496C15.7103 2.29679 15.4846 1.75188 15.0828 1.35012C14.681 0.948363 14.1361 0.722656 13.568 0.722656H2.14231C1.57413 0.722656 1.02923 0.948363 0.627468 1.35012C0.225707 1.75188 0 2.29679 0 2.86496V20.0034C0.000199048 20.1229 0.0303754 20.2404 0.0877649 20.3452C0.145154 20.45 0.227922 20.5388 0.328487 20.6033C0.443425 20.6775 0.577272 20.7172 0.714103 20.7175C0.815145 20.7171 0.914937 20.6952 1.00688 20.6533L2.14231 20.1463L3.27773 20.6533C3.36979 20.6946 3.46958 20.716 3.57051 20.716C3.67145 20.716 3.77124 20.6946 3.8633 20.6533L4.99872 20.1463L6.13414 20.6533C6.23006 20.6989 6.33497 20.7227 6.44121 20.7227C6.54745 20.7227 6.65235 20.6989 6.74827 20.6533L7.66946 20.1891C7.76012 20.1514 7.84201 20.0953 7.91003 20.0245C7.97804 19.9536 8.03072 19.8696 8.06476 19.7774C8.09881 19.6853 8.11349 19.5872 8.10789 19.4892C8.10229 19.3911 8.07653 19.2953 8.03222 19.2077C7.98791 19.12 7.92601 19.0425 7.85037 18.9798C7.77473 18.9172 7.68699 18.8709 7.59263 18.8437C7.49827 18.8165 7.39932 18.8091 7.30195 18.8218C7.20459 18.8346 7.11091 18.8674 7.02677 18.918V18.9037Z" fill="#F9FAFB"/>
<path d="M8.56903 12.8625C8.56903 12.6731 8.4938 12.4915 8.35988 12.3576C8.22596 12.2237 8.04432 12.1484 7.85493 12.1484H4.28442C4.09502 12.1484 3.91339 12.2237 3.77947 12.3576C3.64555 12.4915 3.57031 12.6731 3.57031 12.8625C3.57031 13.0519 3.64555 13.2336 3.77947 13.3675C3.91339 13.5014 4.09502 13.5766 4.28442 13.5766H7.85493C8.04432 13.5766 8.22596 13.5014 8.35988 13.3675C8.4938 13.2336 8.56903 13.0519 8.56903 12.8625ZM4.28442 15.0048C4.09502 15.0048 3.91339 15.0801 3.77947 15.214C3.64555 15.3479 3.57031 15.5296 3.57031 15.719C3.57031 15.9083 3.64555 16.09 3.77947 16.2239C3.91339 16.3578 4.09502 16.4331 4.28442 16.4331H5.71262C5.90201 16.4331 6.08365 16.3578 6.21757 16.2239C6.35149 16.09 6.42672 15.9083 6.42672 15.719C6.42672 15.5296 6.35149 15.3479 6.21757 15.214C6.08365 15.0801 5.90201 15.0048 5.71262 15.0048H4.28442Z" fill="#F9FAFB"/>
</svg>
