<svg width="141" height="20" viewBox="0 0 141 20" fill="none" xmlns="http://www.w3.org/2000/svg">
<path d="M5.38052 19.7157H9.13322V4.95674H14.5137V1.87886H0V4.95674H5.38052V19.7157Z" fill="#132476"/>
<path d="M17.9282 19.7157H21.6809V1.87886H17.9282V19.7157Z" fill="#132476"/>
<path d="M26.1268 19.7157H29.8795V13.1891H32.9487L36.2914 19.7157H40.5411L36.7636 12.6329C38.8139 11.8294 40.0068 9.86403 40.0068 7.57726V7.55253C40.0068 4.04203 37.6707 1.87886 33.5949 1.87886H26.1268V19.7157ZM29.8795 10.4697V4.79604H33.1351C35.0115 4.79604 36.1671 5.90853 36.1671 7.6267V7.65142C36.1671 9.40668 35.0612 10.4697 33.1848 10.4697H29.8795Z" fill="#132476"/>
<path d="M43.5331 19.7157H47.1615V11.508C47.1615 9.95056 48.1556 8.80099 49.5722 8.80099C50.9888 8.80099 51.8213 9.65389 51.8213 11.1125V19.7157H55.4498V11.3473C55.4498 9.87639 56.3942 8.80099 57.8604 8.80099C59.3764 8.80099 60.122 9.62917 60.122 11.2732V19.7157H63.7504V10.3708C63.7504 7.5649 62.0481 5.80964 59.3267 5.80964C57.4131 5.80964 55.8226 6.81088 55.2013 8.31891H54.9776C54.4184 6.74907 53.0391 5.80964 51.1752 5.80964C49.3858 5.80964 47.9692 6.69963 47.3852 8.23239H47.1615V6.1063H43.5331V19.7157Z" fill="#132476"/>
<path d="M69.2152 4.01731C70.3336 4.01731 71.2531 3.12732 71.2531 2.01483C71.2531 0.889988 70.3336 0 69.2152 0C68.0969 0 67.1649 0.889988 67.1649 2.01483C67.1649 3.12732 68.0969 4.01731 69.2152 4.01731ZM67.3886 19.7157H71.017V6.1063H67.3886V19.7157Z" fill="#132476"/>
<path d="M74.767 19.7157H78.3955V11.8418C78.3955 10 79.4144 8.80099 81.0919 8.80099C82.8067 8.80099 83.602 9.81459 83.602 11.7305V19.7157H87.2304V10.9147C87.2304 7.66378 85.5902 5.80964 82.5458 5.80964C80.5949 5.80964 79.2404 6.73671 78.6191 8.20766H78.3955V6.1063H74.767V19.7157Z" fill="#132476"/>
<path d="M94.5716 19.9258C96.361 19.9258 97.8024 19.1718 98.4983 17.911H98.7219V19.7157H102.301V10.4203C102.301 7.51545 100.25 5.80964 96.6219 5.80964C93.1799 5.80964 90.9183 7.39184 90.6325 9.7775L90.6201 9.88875H93.9751L94 9.83931C94.2858 9.03585 95.1183 8.57849 96.4231 8.57849C97.9142 8.57849 98.7219 9.24598 98.7219 10.4203V11.5451L95.4166 11.7429C92.0118 11.9407 90.1106 13.3745 90.1106 15.822V15.8467C90.1106 18.3189 91.9621 19.9258 94.5716 19.9258ZM93.6521 15.6242V15.5995C93.6521 14.6106 94.4101 14.0297 95.9633 13.9308L98.7219 13.7577V14.759C98.7219 16.1928 97.4669 17.293 95.7894 17.293C94.5343 17.293 93.6521 16.6625 93.6521 15.6242Z" fill="#132476"/>
<path d="M111.63 19.7651C112.326 19.7651 112.997 19.691 113.444 19.6044V16.9221C113.096 16.9592 112.848 16.9839 112.376 16.9839C111.145 16.9839 110.623 16.44 110.623 15.2163V8.82571H113.444V6.1063H110.623V2.85538H106.958V6.1063H104.845V8.82571H106.958V16.0445C106.958 18.6897 108.3 19.7651 111.63 19.7651Z" fill="#132476"/>
<path d="M122.537 20C126.75 20 129.285 17.3548 129.285 12.9172V12.8925C129.285 8.49197 126.713 5.80964 122.537 5.80964C118.362 5.80964 115.79 8.50433 115.79 12.8925V12.9172C115.79 17.3424 118.325 20 122.537 20ZM122.537 17.1693C120.599 17.1693 119.505 15.5995 119.505 12.9172V12.8925C119.505 10.2349 120.611 8.6403 122.537 8.6403C124.451 8.6403 125.569 10.2349 125.569 12.8925V12.9172C125.569 15.5995 124.464 17.1693 122.537 17.1693Z" fill="#132476"/>
<path d="M132.339 19.7157H135.967V12.1014C135.967 10.1731 137.272 8.99876 139.335 8.99876C139.894 8.99876 140.453 9.08529 141 9.2089V6.05686C140.64 5.95797 140.13 5.88381 139.646 5.88381C137.869 5.88381 136.626 6.74907 136.191 8.22003H135.967V6.1063H132.339V19.7157Z" fill="#132476"/>
</svg>
