<svg width="13" height="18" viewBox="0 0 13 18" fill="none" xmlns="http://www.w3.org/2000/svg">
<path d="M6.42857 0C3.94521 0 1.92857 2.01664 1.92857 4.5V6.42857C0.864 6.42857 0 7.29321 0 8.35714V16.0714C0 17.1354 0.864 18 1.92857 18H10.9286C11.9931 18 12.8571 17.1354 12.8571 16.0714V8.35714C12.8571 7.29321 11.9931 6.42857 10.9286 6.42857H3.21429V4.5C3.21429 2.72571 4.65429 1.28571 6.42857 1.28571C8.20286 1.28571 9.64286 2.72571 9.64286 4.5C9.64286 4.6705 9.71059 4.83401 9.83115 4.95457C9.9517 5.07513 10.1152 5.14286 10.2857 5.14286C10.4562 5.14286 10.6197 5.07513 10.7403 4.95457C10.8608 4.83401 10.9286 4.6705 10.9286 4.5C10.9286 2.01664 8.91193 0 6.42857 0ZM1.92857 7.71429H10.9286C11.2834 7.71429 11.5714 8.00293 11.5714 8.35714V16.0714C11.5714 16.4256 11.2834 16.7143 10.9286 16.7143H1.92857C1.57371 16.7143 1.28571 16.4256 1.28571 16.0714V8.35714C1.28571 8.00293 1.57371 7.71429 1.92857 7.71429ZM8.32693 10.287C8.23223 10.2911 8.13963 10.3162 8.05581 10.3604C7.97199 10.4047 7.89903 10.467 7.84221 10.5429L6.35979 12.5222L5.59736 11.7598C5.47611 11.6427 5.31373 11.5779 5.14517 11.5794C4.97662 11.5808 4.81538 11.6484 4.69619 11.7676C4.577 11.8868 4.50939 12.048 4.50792 12.2166C4.50646 12.3852 4.57126 12.5475 4.68836 12.6688L5.97407 13.9545C6.0392 14.0197 6.11759 14.0702 6.20394 14.1025C6.29028 14.1347 6.38255 14.1481 6.4745 14.1415C6.56644 14.135 6.65591 14.1088 6.73683 14.0647C6.81775 14.0205 6.88824 13.9595 6.9435 13.8857L8.87207 11.3143C8.94484 11.2166 8.98839 11.1003 8.99767 10.9788C9.00694 10.8574 8.98155 10.7358 8.92446 10.6282C8.86736 10.5206 8.7809 10.4314 8.67513 10.371C8.56935 10.3106 8.44861 10.2815 8.32693 10.287Z" fill="#4B5563"/>
</svg>
