<svg width="17" height="12" viewBox="0 0 17 12" fill="none" xmlns="http://www.w3.org/2000/svg">
<path d="M16.3983 5.68808C16.2553 5.49255 12.8496 0.900391 8.4999 0.900391C4.15018 0.900391 0.744309 5.49255 0.601528 5.68789C0.535553 5.77828 0.5 5.88728 0.5 5.99919C0.5 6.11109 0.535553 6.2201 0.601528 6.31048C0.744309 6.50602 4.15018 11.0982 8.4999 11.0982C12.8496 11.0982 16.2553 6.50599 16.3983 6.31064C16.4643 6.2203 16.5 6.11128 16.5 5.99936C16.5 5.88744 16.4643 5.77842 16.3983 5.68808ZM8.4999 10.0432C5.29587 10.0432 2.52084 6.99533 1.69937 5.99892C2.51978 5.00164 5.289 1.95533 8.4999 1.95533C11.7038 1.95533 14.4786 5.0027 15.3004 5.99964C14.48 6.99689 11.7108 10.0432 8.4999 10.0432Z" fill="#1153DA"/>
<path d="M8.50078 2.83398C6.75572 2.83398 5.33594 4.25377 5.33594 5.99883C5.33594 7.74389 6.75572 9.16367 8.50078 9.16367C10.2458 9.16367 11.6656 7.74389 11.6656 5.99883C11.6656 4.25377 10.2458 2.83398 8.50078 2.83398ZM8.50078 8.1087C7.33734 8.1087 6.39091 7.16223 6.39091 5.99883C6.39091 4.83542 7.33737 3.88895 8.50078 3.88895C9.66419 3.88895 10.6107 4.83542 10.6107 5.99883C10.6107 7.16223 9.66422 8.1087 8.50078 8.1087Z" fill="#1153DA"/>
</svg>
